<?xml version="1.0" standalone="no"?>
<!DOCTYPE svg PUBLIC "-//W3C//DTD SVG 20010904//EN"
 "http://www.w3.org/TR/2001/REC-SVG-20010904/DTD/svg10.dtd">
<svg version="1.0" xmlns="http://www.w3.org/2000/svg"
 width="80.000000pt" height="50.000000pt" viewBox="0 0 150.000000 99.000000"
 preserveAspectRatio="xMidYMid meet">

<g transform="translate(0.000000,99.000000) scale(0.100000,-0.100000)"
fill="#000000" stroke="none">
<path d="M79 671 c19 -26 21 -43 21 -180 l0 -151 25 0 24 0 3 121 3 120 100
-120 c83 -102 103 -121 127 -121 l28 0 0 180 0 180 -25 0 -24 0 -3 -137 -3
-138 -115 137 c-105 125 -118 137 -148 138 l-33 0 20 -29z"/>
<path d="M490 520 l0 -180 140 0 140 0 0 25 0 25 -115 0 -115 0 0 49 c0 56 8
61 98 61 49 0 52 1 52 26 l0 26 -75 -4 -75 -3 0 52 0 53 100 0 100 0 0 25 0
25 -125 0 -125 0 0 -180z"/>
<path d="M836 688 c4 -7 29 -43 56 -79 26 -37 48 -69 48 -72 0 -4 -31 -47 -70
-98 -38 -50 -70 -93 -70 -95 0 -2 15 -4 33 -4 28 1 38 9 86 75 30 41 56 75 58
75 1 0 27 -34 58 -75 47 -64 59 -75 85 -75 17 0 30 3 30 6 0 4 -49 71 -132
180 -5 7 5 28 25 55 18 24 46 61 61 82 l28 37 -33 0 c-30 0 -39 -8 -73 -55
-22 -30 -43 -55 -47 -55 -3 0 -25 25 -48 55 -34 45 -47 55 -72 55 -21 0 -28
-4 -23 -12z"/>
<path d="M1160 675 c0 -24 2 -25 65 -25 l65 0 0 -155 0 -155 25 0 25 0 0 155
0 155 60 0 c57 0 60 1 60 25 l0 25 -150 0 -150 0 0 -25z"/>
</g>
</svg>
