<svg width="1901" height="411" viewBox="0 0 1901 411" fill="none" xmlns="http://www.w3.org/2000/svg">
<path d="M0 231.07L79.2083 251.125C158.417 270.43 316.833 311.664 475.25 300.98C633.667 291.047 792.083 231.07 950.5 161.16C1108.92 90.5001 1267.33 11.7808 1425.75 1.09748C1584.17 -8.83615 1742.58 51.1404 1821.79 81.1287L1901 111.117V411H1821.79C1742.58 411 1584.17 411 1425.75 411C1267.33 411 1108.92 411 950.5 411C792.083 411 633.667 411 475.25 411C316.833 411 158.417 411 79.2083 411H0V231.07Z" fill="#F4F6F7"/>
</svg>
